<svg xmlns="http://www.w3.org/2000/svg" width="640" height="640" viewBox="0 0 640 640" version="1.1">
	<path d="M 0 86.055 L 0 172.110 5.750 167.956 C 11.471 163.823, 42.152 143.387, 55.500 134.818 C 68.634 126.386, 90.474 113.362, 113 100.528 C 152.581 77.978, 157.347 75.296, 165.500 70.992 C 169.900 68.669, 176.200 65.307, 179.500 63.521 C 182.800 61.735, 189.100 58.343, 193.500 55.984 C 197.900 53.625, 204.875 49.824, 209 47.537 C 213.125 45.251, 219.650 41.753, 223.500 39.766 C 227.350 37.778, 235.675 33.193, 242 29.576 L 253.500 23.001 254.314 26.250 C 256.915 36.629, 262.710 52.858, 267.038 61.887 C 270.799 69.731, 271.750 72.597, 270.921 73.595 C 270.318 74.322, 265.026 76.774, 259.162 79.044 C 206.618 99.383, 181.183 110.584, 180.355 113.750 C 180.041 114.951, 177.646 116.264, 173.192 117.677 C 166.843 119.691, 144.781 128.015, 140.500 130.012 C 139.400 130.525, 136.025 131.878, 133 133.018 C 127.187 135.209, 125.547 135.919, 114.702 140.938 C 110.963 142.668, 104.139 145.602, 99.537 147.457 C 85.510 153.112, 78.699 156.914, 64.817 166.839 C 45.466 180.673, 28.072 194.918, 15.250 207.434 C 4.410 218.014, 4 218.569, 4 222.657 C 4 226.971, 8.794 252.585, 11.644 263.500 C 12.505 266.800, 13.334 273.550, 13.485 278.500 C 13.874 291.262, 20.608 311.375, 27.530 320.451 C 30.643 324.531, 31.530 323.936, 17 327.507 C 2.382 331.099, 0 331.950, 0 333.578 C 0 335.238, 0.954 335.348, 4.303 334.075 C 5.642 333.566, 14.930 331.325, 24.943 329.094 L 43.148 325.039 50.565 330.044 C 63.345 338.668, 77 350.341, 77 352.642 C 77 353.368, 75.763 354.214, 74.250 354.522 C 72.737 354.831, 68.125 356.457, 64 358.137 C 56.833 361.055, 55.900 361.185, 43 361.059 L 29.500 360.928 26.500 357.686 C 24.850 355.903, 21.925 352.465, 20 350.046 C 10.011 337.493, 6.571 334.095, 5.221 335.446 C 4.423 336.244, 4.773 336.735, 13.561 347.140 C 17.444 351.738, 20.977 356.175, 21.411 357 C 22.240 358.575, 20.249 356.423, 9.220 343.822 C 5.524 339.599, 1.883 336.111, 1.128 336.072 C 0.044 336.015, 0.094 336.472, 1.370 338.250 C 2.257 339.488, 3.503 341.400, 4.137 342.500 C 5.249 344.427, 5.219 344.436, 3.317 342.750 C 0.504 340.256, 0 340.537, -0 344.596 C -0 347.713, 1.068 349.334, 8 356.743 C 12.400 361.446, 16 365.732, 16 366.268 C 16 366.804, 12.842 364.263, 8.981 360.621 C 5.121 356.980, 1.521 354, 0.981 354 C 0.442 354, 0 355.160, 0 356.578 C 0 358.940, 3.992 364.277, 13.022 373.986 L 15.544 376.698 13.522 381.622 L 11.500 386.546 6.500 383.796 C 0.266 380.368, 0 380.369, 0 383.801 C 0 386.130, 0.758 386.970, 4.500 388.788 C 8.864 390.908, 10.790 393.620, 7.250 392.660 C 6.287 392.399, 4.262 391.910, 2.750 391.574 L -0 390.962 -0 399.922 C -0 405.393, 0.431 409.148, 1.107 409.566 C 1.881 410.045, 1.815 410.496, 0.886 411.071 C 0.155 411.522, -0.128 412.205, 0.255 412.588 C 0.638 412.971, 1.618 412.732, 2.432 412.056 C 3.246 411.381, 4.432 411.149, 5.068 411.542 C 5.814 412.003, 5.121 412.954, 3.112 414.226 C 0.165 416.092, -0 416.532, -0 422.518 L 0 428.840 5.750 425.992 C 14.309 421.752, 18.153 421.297, 21.169 424.165 C 24.504 427.338, 33.873 440.756, 40.710 452.150 L 43.919 457.500 37.710 459.289 C 34.294 460.273, 25.200 462.896, 17.500 465.118 C 9.800 467.341, 2.712 469.378, 1.750 469.647 C 0.108 470.105, -0 473.907, -0 531.438 L -0 592.742 4.498 591.902 C 17.611 589.452, 54.630 578.858, 81.237 569.940 C 99.441 563.839, 112.193 558.443, 119.844 553.603 C 122.234 552.092, 124.355 551.022, 124.558 551.225 C 125.041 551.708, 118.265 561.470, 110.594 571.343 C 96.111 589.983, 90 598.321, 90 599.443 C 90 600.609, 80.398 612.390, 72.675 620.700 C 70.571 622.963, 67.740 626.319, 66.384 628.158 C 65.028 629.996, 62.057 633.454, 59.781 635.843 C 56.071 639.736, 55.887 640.150, 58 639.843 C 59.463 639.630, 63.200 636.273, 67.844 631 C 71.962 626.325, 78.344 619.125, 82.027 615 C 91.405 604.496, 93.057 602.518, 107.510 584.500 C 114.569 575.700, 123.332 565.125, 126.983 561 C 134.652 552.336, 140.090 545.246, 149.085 532.185 C 162.007 513.420, 163.234 511.766, 167.081 507.919 C 169.237 505.763, 171.886 504, 172.969 504 C 174.312 504, 174.754 503.521, 174.359 502.492 C 174.040 501.663, 174.580 499.751, 175.557 498.242 C 179.297 492.469, 202.457 469.940, 214.524 460.336 C 216.711 458.596, 221.425 454.838, 225 451.986 C 232.170 446.266, 250.976 433.695, 260.434 428.300 C 263.770 426.397, 269.200 423.253, 272.500 421.314 C 275.800 419.375, 285.025 414.163, 293 409.733 C 300.975 405.302, 309.525 400.276, 312 398.564 C 314.475 396.852, 320.100 393.673, 324.500 391.500 C 330.084 388.742, 334.916 385.264, 340.500 379.988 C 344.900 375.830, 351.425 369.972, 355 366.970 C 358.575 363.968, 361.725 361.260, 362 360.951 C 364.168 358.515, 410.594 323.256, 421.500 315.762 C 439.536 303.369, 467.381 288.442, 470.343 289.578 C 471.255 289.928, 472 289.744, 472 289.169 C 472 287.857, 487.554 280, 490.151 280 C 491.207 280, 493.067 279.354, 494.285 278.565 C 495.503 277.775, 500.100 275.927, 504.500 274.458 C 508.900 272.989, 513.751 271.142, 515.279 270.353 C 518.276 268.806, 518.933 269.024, 523.500 273.087 C 525.150 274.554, 528.939 277.723, 531.920 280.127 C 535.778 283.241, 537.703 285.652, 538.603 288.500 C 542.319 300.265, 553.649 335.706, 556.186 343.500 C 562.229 362.065, 570 390.058, 570 393.259 C 570 394.097, 567.085 395.828, 562.927 397.459 C 546.441 403.927, 523.673 416.887, 506.500 429.579 C 501 433.644, 490.200 441.542, 482.500 447.131 C 453.379 468.268, 433.329 486.422, 421.676 502.206 C 417.329 508.093, 414.928 510.381, 411.506 511.894 C 407.398 513.711, 400.800 519.678, 390.533 530.860 C 388.351 533.237, 384.751 536.097, 382.533 537.216 C 378.796 539.102, 369.145 545.635, 368 547.054 C 367.725 547.394, 365.250 548.950, 362.500 550.510 C 354.245 555.193, 324.600 575.225, 307 588.013 C 297.925 594.607, 286 603.226, 280.500 607.167 C 262.177 620.296, 242 637.088, 242 639.208 C 242 641.374, 245.504 639.393, 251.671 633.741 C 258.259 627.703, 278.678 612.054, 291.890 602.919 C 295.405 600.488, 303.065 596.025, 308.913 593 C 320.285 587.118, 330.210 580.755, 348.199 567.813 C 355.616 562.477, 366.128 556.372, 378.998 549.927 L 398.537 540.143 415.636 523.321 C 425.040 514.070, 434.854 503.575, 437.445 500 C 446.300 487.778, 460.636 473.477, 474.324 463.209 C 504.676 440.440, 521.972 428.523, 531.895 423.541 C 537.859 420.547, 559.165 414, 562.944 414 C 563.435 414, 564.863 415.687, 566.117 417.750 C 567.371 419.813, 570.558 424.380, 573.198 427.899 C 576.017 431.655, 578.009 435.372, 578.022 436.899 C 578.074 443.070, 584.623 452.747, 590.922 455.960 L 594.592 457.833 595.877 469.666 C 597.498 484.608, 599.443 493.988, 601.930 498.863 C 603.002 500.964, 607.169 505.780, 611.189 509.567 C 615.210 513.353, 623.330 521.393, 629.234 527.434 L 639.969 538.418 640.234 565.459 C 640.380 580.331, 640.529 459.188, 640.564 296.250 L 640.627 0 535.799 0 L 430.972 0 433.533 3.870 C 435.018 6.114, 436.807 11.189, 437.792 15.951 L 439.489 24.162 433.039 29.831 C 420.978 40.431, 413.948 48.011, 413.336 51.072 C 412.677 54.365, 406.363 60.007, 403.356 59.989 C 402.335 59.983, 399.285 59.306, 396.577 58.485 C 393.870 57.664, 389.445 56.772, 386.743 56.503 C 384.042 56.234, 381.443 55.774, 380.968 55.480 C 380.494 55.187, 378.129 54.747, 375.714 54.503 C 373.299 54.258, 368.575 52.695, 365.217 51.029 C 361.860 49.363, 358.864 48, 358.560 48 C 358.257 48, 354.519 46.384, 350.254 44.409 C 345.989 42.435, 341.173 40.273, 339.550 39.607 L 336.601 38.395 339.050 36.636 C 341.376 34.966, 358.574 23.757, 362.209 21.541 C 382.921 8.919, 388.542 5.654, 394 3.074 L 400.500 0.002 375.882 0.001 L 351.264 -0 349.639 5.750 C 348.182 10.909, 346.872 12.663, 336.898 22.810 C 325.820 34.080, 325.771 34.116, 322.641 32.967 C 320.913 32.334, 313.978 29.865, 307.229 27.482 C 300.479 25.098, 291.929 21.455, 288.229 19.385 C 284.528 17.316, 280.375 15.035, 279 14.317 C 277.625 13.600, 276.768 13.010, 277.096 13.006 C 278.001 12.997, 294.086 7.149, 297.500 5.588 C 299.150 4.833, 302.525 3.284, 305 2.144 L 309.500 0.073 154.750 0.037 L 0 0 0 86.055 M 0.478 86.500 C 0.478 133.800, 0.600 153.004, 0.750 129.175 C 0.899 105.346, 0.899 66.646, 0.750 43.175 C 0.600 19.704, 0.478 39.200, 0.478 86.500 M 261.250 18.641 C 258.913 20.050, 257 21.954, 257 22.872 C 257 23.789, 257.919 27.906, 259.041 32.020 C 265.080 54.146, 276.386 76.001, 293.404 98.445 C 297.551 103.914, 300.725 108.608, 300.457 108.876 C 299.219 110.115, 287.478 96.341, 278.250 82.824 C 276.262 79.912, 276 79.784, 276 81.731 C 276 83.505, 274.239 84.817, 266.961 88.466 C 261.989 90.959, 256.701 93.882, 255.211 94.961 C 253.720 96.041, 243.050 99.620, 231.500 102.914 C 193.075 113.872, 152.884 127.965, 123 140.958 C 113.925 144.903, 104.025 149.084, 101 150.249 C 87.882 155.300, 77.609 161.444, 58.776 175.506 C 49.711 182.275, 48.359 183.634, 49.836 184.490 C 51.149 185.252, 71.492 200.352, 80.500 207.252 C 89.584 214.210, 92.625 217.062, 96.539 222.294 C 99.092 225.707, 109.164 236.661, 118.921 246.636 C 142.779 271.027, 159.180 290.057, 179.132 316.500 C 186.692 326.519, 197.546 342.653, 198.634 345.489 C 198.953 346.320, 199.978 347, 200.911 347 C 201.844 347, 203.995 348.462, 205.690 350.250 C 211.047 355.897, 224 376.146, 224 378.872 C 224 381.603, 222.021 379.330, 216.059 369.750 C 208.230 357.170, 202.931 350.494, 201.987 352.021 C 201.579 352.682, 199.088 350.025, 195.898 345.524 C 183.003 327.331, 176.059 317.868, 168.729 308.500 C 148.749 282.965, 141.486 274.715, 115.910 248.500 C 107.324 239.700, 97.800 229.315, 94.745 225.423 C 88.857 217.921, 84.404 213.916, 71.500 204.520 C 67.100 201.316, 59.575 195.584, 54.778 191.781 L 46.056 184.867 36.278 192.633 C 25.329 201.330, 20.121 205.971, 12.329 213.973 C 6.196 220.271, 5.996 221.393, 8.558 235.140 C 14.987 269.649, 23.350 293.435, 35.339 311.314 C 37.850 315.058, 40.181 318.994, 40.519 320.061 C 40.944 321.399, 42.044 322, 44.067 322 C 45.680 322, 47 322.453, 47 323.007 C 47 323.560, 50.213 326.073, 54.140 328.590 C 61.234 333.137, 62.936 333.264, 62.985 329.249 C 63.004 327.667, 70.836 320, 72.433 320 C 73.089 320, 74.882 318.689, 76.418 317.086 C 78.636 314.770, 80.409 314.033, 85.054 313.494 C 89.319 312.999, 91.431 313.189, 92.871 314.197 C 96.313 316.608, 120.123 343.340, 122.356 347.302 C 123.797 349.856, 125.420 351.295, 127.303 351.687 C 129.545 352.154, 130.768 353.597, 133.406 358.886 C 135.221 362.524, 139.694 370.615, 143.346 376.867 C 149.487 387.381, 154.353 394.536, 171.662 418.500 C 178.384 427.807, 184 437.807, 184 440.469 C 184 441.970, 190.629 450, 191.868 450 C 192.217 450, 196.102 448.103, 200.501 445.785 C 204.901 443.467, 214.131 438.855, 221.012 435.535 C 230.720 430.853, 234.503 428.436, 237.888 424.752 C 242.978 419.213, 242.978 419.193, 237.535 404.661 C 233.842 394.801, 233.430 393, 234.866 393 C 235.836 393, 241.068 404.344, 242.937 410.500 C 243.605 412.700, 244.352 415.124, 244.597 415.886 C 244.949 416.985, 245.483 416.881, 247.170 415.386 C 249.329 413.473, 260.520 396.763, 263.495 391.010 C 265.203 387.706, 265.207 382.347, 263.500 382.717 C 262.950 382.836, 258.450 384.277, 253.500 385.919 C 242.156 389.680, 230.136 392.883, 224.418 393.666 C 220.748 394.169, 220 393.995, 220 392.636 C 220 391.580, 220.843 391, 222.378 391 C 223.685 391, 225.322 390.317, 226.015 389.482 C 226.708 388.646, 228.884 387.200, 230.850 386.267 C 236.373 383.646, 250.015 369.390, 254 362.075 C 255.925 358.541, 257.950 355.527, 258.500 355.377 C 259.050 355.227, 261.075 357.623, 263 360.701 C 271.899 374.931, 277.736 381.706, 285.736 387.093 C 288.356 388.857, 291.400 391.076, 292.500 392.024 C 293.600 392.972, 296.592 394.895, 299.148 396.297 L 303.796 398.846 311.424 394.849 L 319.052 390.852 314.708 386.020 C 306.826 377.254, 289.081 346.092, 285.497 334.726 C 282.734 325.963, 281.812 324, 280.455 324 C 273.213 324, 260.513 296.768, 254.444 268.222 C 250.788 251.026, 249.866 228.563, 252.893 230.434 C 253.352 230.718, 253.964 236.474, 254.252 243.225 C 255.165 264.578, 263.293 294.547, 273.084 312.655 C 275.863 317.795, 278.343 322, 278.596 322 C 280.187 322, 276.413 298.288, 271.415 276.870 C 269.537 268.823, 268 261.736, 268 261.120 C 268 258.993, 269.954 260.010, 271.458 262.919 C 273.198 266.284, 282.262 278.389, 285.624 281.838 L 287.903 284.176 291.202 281.706 C 295.995 278.117, 300.539 276, 303.450 276 C 307.649 276, 306.362 277.725, 300.053 280.557 C 289.463 285.309, 289.467 285.386, 300.925 295.533 C 312.853 306.096, 313.730 306.650, 316.148 305.140 C 319.070 303.315, 320.228 303.705, 318.954 306.086 C 317.535 308.737, 318.529 309.775, 321.006 308.228 C 322.059 307.571, 323.614 307.298, 324.460 307.623 C 325.803 308.138, 325.998 306.376, 325.983 293.857 C 325.960 274.981, 322.382 254.459, 313.806 224.002 C 311.325 215.191, 308.675 204.707, 302.986 181.198 C 301.796 176.279, 303.914 177.684, 306.108 183.268 C 307.118 185.840, 308.745 188.770, 309.722 189.778 C 310.700 190.787, 313.342 193.612, 315.594 196.056 C 324.114 205.304, 339.633 219.144, 347.189 224.231 C 351.206 226.936, 351.269 226.945, 353.872 225.107 C 361.469 219.742, 380.414 212, 385.945 212 C 387.560 212, 389.141 211.581, 389.458 211.068 C 390.132 209.977, 385.003 196.682, 381.457 190.329 C 378.668 185.334, 378.430 184, 380.327 184 C 381.606 184, 389.490 199.541, 392.122 207.250 C 392.826 209.313, 393.714 211, 394.095 211 C 394.476 211, 394.786 212.012, 394.782 213.250 C 394.779 214.487, 395.921 219.550, 397.321 224.500 C 398.721 229.450, 400.361 236.004, 400.966 239.065 C 402.058 244.595, 402.087 244.629, 405.468 244.363 C 407.995 244.164, 408.972 244.533, 409.263 245.797 C 409.692 247.666, 407.072 253, 405.725 253 C 405.262 253, 405.160 253.450, 405.500 254 C 405.840 254.550, 407.029 255, 408.142 255 C 409.331 255, 409.984 255.516, 409.724 256.250 C 409.481 256.938, 408.143 257.422, 406.751 257.327 L 404.220 257.154 403.714 274.827 C 403.227 291.867, 401.848 301, 399.762 301 C 399.184 301, 399.042 299.848, 399.425 298.250 C 400.361 294.338, 401.408 260, 400.591 260 C 400.218 260, 398.174 261.609, 396.049 263.575 C 391.262 268.004, 387.344 270.961, 379 276.444 C 368.879 283.094, 366.269 284.215, 362.677 283.452 C 359.546 282.787, 356 280.396, 356 278.949 C 356 278.542, 358.363 276.700, 361.250 274.856 C 369.460 269.614, 390 253.941, 390 252.919 C 390 252.414, 388.827 252, 387.394 252 C 381.673 252, 361.282 245.556, 350.164 240.235 L 344.829 237.682 342.504 240.591 C 339.696 244.104, 338.134 243.252, 340.569 239.535 C 341.557 238.027, 341.912 236.564, 341.399 236.118 C 339.348 234.340, 325.997 226, 325.202 226 C 324.727 226, 324.932 228.813, 325.657 232.250 C 329.028 248.244, 330.644 285.879, 328.867 307.034 L 328.234 314.568 321.983 321.279 C 318.545 324.969, 313.543 329.659, 310.866 331.700 C 307.537 334.239, 306 336.136, 306 337.705 C 306 340.288, 304.516 340.787, 303.638 338.500 C 303.090 337.070, 300 336.322, 300 337.619 C 300 338.414, 306.920 350.025, 308.571 352 C 309.261 352.825, 310.303 356.108, 310.887 359.295 C 313.096 371.349, 316.682 375.256, 327.087 376.944 C 337.321 378.605, 337.335 378.600, 346.243 370.382 C 350.784 366.192, 359.450 358.897, 365.500 354.172 C 371.550 349.446, 376.725 345.304, 377 344.966 C 377.423 344.447, 383.456 339.782, 407.777 321.168 C 410.925 318.758, 411.575 317.163, 413.033 308.260 C 414.008 302.310, 412.338 297.062, 410.163 299.237 C 409.523 299.877, 409 301.435, 409 302.700 C 409 305.145, 407.476 305.843, 406.708 303.750 C 406.342 302.750, 405.985 302.750, 404.925 303.750 C 403.350 305.236, 397 305.436, 397 304 C 397 303.450, 397.450 302.944, 398 302.875 C 398.550 302.806, 399.450 302.637, 400 302.500 C 400.550 302.363, 401.447 302.194, 401.994 302.125 C 402.541 302.056, 405.051 299.863, 407.571 297.250 C 413.921 290.668, 414.529 289.914, 416.304 286.427 C 417.164 284.737, 418.649 282.712, 419.603 281.927 C 421.195 280.617, 421.289 280.746, 420.752 283.500 C 420.429 285.150, 420.749 288.750, 421.463 291.500 C 422.176 294.250, 422.562 296.837, 422.321 297.250 C 421.465 298.713, 420.373 297.964, 419.404 295.250 C 418.543 292.837, 418.257 293.602, 417.071 301.495 C 416.328 306.442, 415.364 311.729, 414.930 313.245 C 414.495 314.760, 414.311 316, 414.520 316 C 414.729 316, 420.029 312.656, 426.297 308.569 C 441.187 298.860, 448.919 294.565, 464.033 287.607 L 469.565 285.060 471.318 271.780 C 472.595 262.100, 472.905 255.247, 472.460 246.500 C 471.691 231.407, 470.765 226.464, 465.866 211.295 C 460.667 195.199, 456.926 186.277, 451.287 176.530 C 446.738 168.666, 435.286 150.989, 434.100 150 C 433.770 149.725, 431.270 146.575, 428.544 143 C 418.097 129.298, 392.505 101.717, 383.593 94.555 C 369.749 83.430, 347.339 67.552, 317.500 47.727 C 302.650 37.861, 287.204 27.556, 283.175 24.827 C 276.648 20.405, 267.991 15.932, 266.167 16.039 C 265.800 16.060, 263.587 17.231, 261.250 18.641 M 278 40.183 C 278 44.163, 285.171 65.412, 289.233 73.469 C 294.711 84.335, 302.109 93.924, 308.500 98.445 C 310.457 99.830, 310.430 99.933, 307.250 103.228 C 303.324 107.296, 303.166 109.855, 306.589 113.923 C 308.453 116.138, 308.764 117, 307.699 117 C 306.886 117, 303.745 119.436, 300.719 122.414 C 294.196 128.833, 290.963 136.429, 292.923 140.731 C 293.557 142.121, 293.946 143.361, 293.787 143.486 C 290.914 145.762, 279.121 152, 277.691 152 C 276.549 152, 272.274 148.301, 267.249 142.963 C 262.570 137.992, 258.519 134.147, 258.248 134.419 C 257.976 134.690, 260.951 139.675, 264.857 145.495 C 273.110 157.790, 272.760 158.949, 262.218 154.236 C 252.607 149.939, 223.579 141.312, 216.490 140.646 C 213.185 140.335, 208.516 139.388, 206.115 138.540 C 200.994 136.734, 195.028 136.428, 196.655 138.055 C 197.236 138.636, 203.513 140.839, 210.605 142.951 C 230.884 148.991, 262.959 161.374, 261.668 162.665 C 261.472 162.861, 255.926 163.651, 249.345 164.420 C 235.881 165.993, 209.911 171.153, 200.777 174.071 C 197.456 175.132, 194.214 176, 193.571 176 C 192.928 176, 182.974 179.089, 171.451 182.864 C 143.700 191.956, 138.125 193.302, 127.750 193.409 C 119.571 193.494, 116.985 194.289, 120.500 195.638 C 121.325 195.955, 122 196.854, 122 197.636 C 122 201.008, 128.599 211.647, 135.504 219.408 C 143.622 228.532, 154.433 237.212, 163.615 241.975 C 174.455 247.599, 173.802 245.193, 162.500 237.865 C 149.341 229.333, 131.737 212.362, 127.622 204.241 C 126.180 201.395, 125 198.670, 125 198.185 C 125 197.700, 128.761 196.777, 133.358 196.134 C 144.337 194.598, 149.394 193.245, 175 184.996 C 208.509 174.200, 233.441 168.833, 261.491 166.380 L 269.481 165.681 266.491 169.588 C 257.828 180.908, 253.051 190, 255.766 190 C 256.188 190, 257.981 187.578, 259.752 184.618 C 267.327 171.953, 280.381 158.151, 293.632 148.796 C 298.745 145.187, 298.795 145.175, 306.882 145.729 C 311.347 146.035, 315 146.678, 315 147.158 C 315 148.465, 321.208 151.992, 323.516 151.996 C 327.243 152.003, 334.073 147.355, 347.364 135.766 C 349.522 133.885, 351.624 133.027, 354.104 133.016 C 358.360 132.997, 361.863 130.148, 364.865 124.264 L 366.900 120.276 361.800 113.888 C 348.487 97.215, 323.887 72.339, 306.500 57.969 C 301.550 53.877, 294.699 47.936, 291.275 44.765 C 287.113 40.910, 284.214 39, 282.525 39 C 281.136 39, 280 38.550, 280 38 C 280 37.450, 279.550 37, 279 37 C 278.450 37, 278 38.432, 278 40.183 M 331.500 94.099 C 325.104 94.978, 321.696 96.338, 315.500 100.487 C 310.418 103.891, 307 107.287, 307 108.934 C 307 109.434, 308.800 111.385, 311 113.268 C 313.200 115.151, 315 117.161, 315 117.735 C 315 118.308, 313.385 119.080, 311.410 119.451 C 304.310 120.783, 293.860 133.834, 295.573 139.230 L 296.283 141.467 297.109 139.234 C 298.095 136.570, 301.027 136.402, 311.423 138.412 C 317.803 139.646, 320.191 141.072, 321.262 144.285 C 321.470 144.909, 322.505 144.800, 324.005 143.997 C 327.330 142.218, 340.404 132.598, 346.744 127.266 C 350.343 124.239, 352.731 122.953, 354.355 123.165 C 355.657 123.336, 357.454 122.868, 358.348 122.126 C 359.243 121.384, 360.611 121.021, 361.389 121.319 C 364.297 122.435, 363.834 120.579, 360.086 116.103 C 352.374 106.891, 339.958 94.223, 338.250 93.823 C 337.287 93.597, 334.250 93.722, 331.500 94.099 M 156 209.398 C 156 211.109, 161.883 219.443, 166.211 223.862 C 174.703 232.535, 191.325 242.104, 200.309 243.491 C 203.649 244.007, 208.385 245.823, 213.850 248.683 C 214.385 248.963, 211.922 256, 211.288 256 C 210.982 256, 209.105 255.565, 207.116 255.033 C 205.127 254.501, 200.350 253.328, 196.500 252.427 C 192.650 251.525, 186.607 249.701, 183.072 248.372 C 174.767 245.250, 173.106 246.606, 179.526 251.265 C 183.807 254.372, 201.706 262.091, 208 263.545 C 209.510 263.894, 211.094 265.383, 212 267.307 C 214.163 271.898, 217.305 273.173, 225.250 272.683 C 232.207 272.254, 232.843 272.641, 231.393 276.418 C 230.974 277.511, 229.505 277.997, 226.643 277.990 C 221.552 277.977, 190.410 282.820, 187.098 284.139 C 185.221 284.886, 184.961 285.359, 185.906 286.298 C 186.758 287.143, 190.734 287.396, 199.309 287.148 C 206.014 286.954, 215.544 286.729, 220.486 286.648 L 229.472 286.500 230.679 299.500 C 231.343 306.650, 232.429 315.115, 233.093 318.311 C 234.546 325.313, 233.798 343.208, 231.475 357 C 229.892 366.400, 226.344 379.034, 225.016 380 C 224.639 380.275, 223.848 382.432, 223.260 384.793 C 222.326 388.541, 222.378 388.931, 223.668 387.860 C 227.479 384.698, 232.107 371.213, 234.512 356.266 C 235.453 350.423, 236.449 333.943, 237.033 314.553 C 238.423 268.471, 241.692 242.264, 249.059 218.145 C 251.378 210.551, 251.347 211, 249.551 211 C 248.657 211, 247.433 213.201, 246.353 216.750 C 245.391 219.912, 244.507 222.648, 244.389 222.830 C 244.270 223.011, 243.122 222.486, 241.837 221.663 C 238.405 219.466, 222.011 216.206, 208.394 215.014 C 191.699 213.552, 179.788 212.108, 170.640 210.436 C 163.111 209.061, 156 208.556, 156 209.398 M 382 216.133 C 373.968 218.279, 361.330 223.809, 357.413 226.890 C 355.591 228.323, 355.316 229.006, 356.260 229.754 C 359.930 232.660, 394.633 248, 397.537 248 C 398.953 248, 399.085 247.254, 398.466 242.750 C 397.423 235.157, 391.676 214.697, 390.500 214.389 C 389.950 214.246, 386.125 215.030, 382 216.133 M 11.460 222.750 C 12.695 227.763, 25.718 253.194, 38.217 275 C 51.076 297.432, 65 319.365, 65 317.187 C 65 315.393, 61.889 309.510, 52.742 294.003 C 40.531 273.301, 37.411 267.964, 34.036 262 C 28.483 252.189, 14 222.842, 14 221.401 C 14 220.630, 13.276 220, 12.392 220 C 11.139 220, 10.933 220.609, 11.460 222.750 M 212.350 228.820 C 207.399 233.621, 205.020 238.605, 206.521 241.033 C 206.889 241.629, 209.622 243.267, 212.595 244.675 C 215.568 246.082, 218 247.310, 218 247.402 C 218 247.494, 217.100 250.130, 216 253.260 C 213.338 260.833, 213.428 268, 216.185 268 C 216.719 268, 220.431 266.425, 224.433 264.500 C 228.435 262.575, 232.880 261, 234.310 261 C 236.532 261, 237.004 260.455, 237.559 257.250 C 237.916 255.188, 239.312 247.713, 240.662 240.641 C 242.011 233.568, 242.976 227.692, 242.807 227.582 C 242.153 227.157, 227.247 224.746, 222.500 224.298 C 217.618 223.836, 217.379 223.943, 212.350 228.820 M 366.366 264.643 C 358.343 270.069, 356 271.993, 356 273.155 C 356 274.721, 358.070 274.017, 363.300 270.671 C 367.960 267.690, 375 261.524, 375 260.423 C 375 259.253, 372.608 260.422, 366.366 264.643 M 287.766 300.567 C 287.564 300.769, 287.729 304.388, 288.132 308.609 C 288.721 314.772, 289.770 318.155, 293.458 325.783 C 295.984 331.008, 298.301 335.033, 298.606 334.727 C 298.912 334.421, 298.694 333.296, 298.122 332.227 C 297.222 330.546, 297.920 329.596, 303.291 325.193 C 314.609 315.914, 315.448 315.048, 314.256 313.856 C 313.453 313.053, 312.338 313.335, 310.147 314.895 C 307.100 317.065, 304.770 316.265, 307.511 313.991 C 309.747 312.135, 309.341 311.268, 305.668 310.056 C 303.836 309.451, 299.141 306.986, 295.235 304.578 C 291.330 302.170, 287.969 300.365, 287.766 300.567 M 0.079 333.583 C 0.127 334.748, 0.364 334.985, 0.683 334.188 C 0.972 333.466, 0.936 332.603, 0.604 332.271 C 0.272 331.939, 0.036 332.529, 0.079 333.583 M 0.272 345 C 0.272 347.475, 0.467 348.488, 0.706 347.250 C 0.944 346.012, 0.944 343.988, 0.706 342.750 C 0.467 341.512, 0.272 342.525, 0.272 345 M 323 349.918 C 323 351.649, 324.214 354, 325.107 354 C 325.598 354, 326 352.875, 326 351.500 C 326 349.944, 325.433 349, 324.500 349 C 323.675 349, 323 349.413, 323 349.918 M 318 353.418 C 318 355.587, 319.110 358, 320.107 358 C 320.598 358, 321 356.650, 321 355 C 321 353, 320.500 352, 319.500 352 C 318.675 352, 318 352.638, 318 353.418 M 314.750 353.583 C 313.619 354.714, 313.850 359.789, 315.067 360.541 C 316.843 361.639, 317.270 360.300, 316.362 356.470 C 315.888 354.469, 315.163 353.170, 314.750 353.583 M 0.232 357 C 0.232 358.925, 0.438 359.712, 0.689 358.750 C 0.941 357.788, 0.941 356.212, 0.689 355.250 C 0.438 354.288, 0.232 355.075, 0.232 357 M 101 354.698 C 80.514 356.554, 59.008 362.586, 49.994 369.004 C 47.260 370.951, 47.183 371.191, 48.712 372.976 C 50.182 374.694, 50.603 374.740, 53.088 373.455 C 62.970 368.345, 78.307 365.198, 84.804 366.947 C 87.027 367.546, 88.992 368.457, 89.173 368.973 C 89.353 369.489, 91.975 370.149, 95 370.440 C 98.025 370.731, 101.625 371.238, 103 371.568 C 104.375 371.897, 107.300 372.554, 109.500 373.028 C 111.700 373.502, 116.088 374.790, 119.250 375.891 L 125 377.892 125 366.555 C 125 355.628, 124.918 355.196, 122.748 354.652 C 120.480 354.082, 107.492 354.110, 101 354.698 M 23.638 372.500 C 23.322 373.325, 23.499 374, 24.031 374 C 24.564 374, 25 373.325, 25 372.500 C 25 371.675, 24.823 371, 24.607 371 C 24.391 371, 23.955 371.675, 23.638 372.500 M 27.640 373.774 C 26.701 375.292, 21.147 393.388, 20.511 397 C 19.924 400.328, 20.106 400.611, 24.197 402.753 C 28.813 405.170, 31.608 405.532, 34 404.023 C 35.921 402.812, 41.163 378, 39.846 376.355 C 39.341 375.725, 37.257 374.913, 35.214 374.551 C 33.171 374.189, 30.750 373.674, 29.834 373.406 C 28.918 373.138, 27.930 373.304, 27.640 373.774 M 69.090 375.550 C 55.387 379.033, 50.725 381.587, 49.576 386.242 C 49.067 388.300, 48.956 390.289, 49.328 390.661 C 49.700 391.034, 55.516 391.718, 62.252 392.183 C 83.028 393.616, 101.698 399.403, 109.245 406.750 C 112.886 410.295, 113.032 410.342, 114.519 408.448 C 118.891 402.879, 122.816 392.622, 121.004 391.502 C 119.534 390.594, 119.779 389, 121.389 389 C 123.341 389, 124.574 381.988, 122.823 380.845 C 120.133 379.092, 105.259 375.074, 97.678 374.053 C 86.269 372.517, 79.660 372.863, 69.090 375.550 M 20.054 380.101 C 17.592 385.570, 14.403 398.737, 15.320 399.654 C 16.422 400.755, 17.055 399.533, 18.590 393.347 C 19.388 390.131, 20.756 385.112, 21.631 382.194 C 23.628 375.530, 22.680 374.271, 20.054 380.101 M 41.037 391.037 C 39.779 397.112, 39.008 402.342, 39.326 402.659 C 39.983 403.317, 40.320 401.945, 42.522 389.637 C 43.394 384.762, 43.931 380.598, 43.716 380.383 C 43.501 380.168, 42.296 384.962, 41.037 391.037 M 0.232 384 C 0.232 385.925, 0.438 386.712, 0.689 385.750 C 0.941 384.788, 0.941 383.212, 0.689 382.250 C 0.438 381.288, 0.232 382.075, 0.232 384 M 0.360 400 C 0.360 405.225, 0.529 407.363, 0.735 404.750 C 0.941 402.137, 0.941 397.863, 0.735 395.250 C 0.529 392.637, 0.360 394.775, 0.360 400 M 63 396.595 C 63 397.368, 62.298 398, 61.441 398 C 56.570 398, 64.283 401.082, 79.500 405.216 C 81.700 405.813, 85.750 407.320, 88.500 408.563 C 104.409 415.757, 105.535 416.127, 108.305 415.074 C 112.219 413.586, 111.632 411.614, 106.247 408.158 C 98.836 403.403, 91.324 400.433, 81 398.178 C 67.602 395.252, 63 394.847, 63 396.595 M 0.328 422.500 C 0.333 426.350, 0.513 427.802, 0.730 425.728 C 0.946 423.653, 0.943 420.503, 0.722 418.728 C 0.501 416.952, 0.324 418.650, 0.328 422.500 M 131.889 418.875 C 129.353 419.769, 125.506 421.684, 123.339 423.132 C 117.237 427.209, 109.760 430.767, 105.690 431.530 C 103.655 431.912, 99.180 431.747, 95.745 431.164 C 92.310 430.580, 87.580 429.848, 85.232 429.537 C 81.220 429.005, 81.036 429.085, 82.161 430.886 C 82.818 431.939, 83.839 432.625, 84.428 432.411 C 85.018 432.196, 85.974 432.354, 86.553 432.761 C 87.359 433.327, 92.478 439.898, 93.599 441.806 C 93.698 441.974, 97.766 440.761, 102.639 439.109 C 110.464 436.458, 132.658 430.236, 140.250 428.567 C 141.762 428.234, 143 427.384, 143 426.678 C 143 425.591, 137.142 416.759, 136.663 417.125 C 136.574 417.194, 134.425 417.981, 131.889 418.875 M 37.178 422.046 L 34.856 422.989 36.791 425.744 C 40.565 431.120, 51.709 450.223, 55.790 458.312 C 58.202 463.094, 58.112 460.674, 55.607 453.419 C 51.100 440.363, 42.532 421.531, 41 421.315 C 40.175 421.198, 38.455 421.527, 37.178 422.046 M 46 421.862 C 46 422.335, 47.787 426.536, 49.970 431.196 C 57.053 446.310, 62.933 464.299, 66.495 481.750 L 67.159 484.999 70.616 480.861 C 72.518 478.584, 73.860 476.222, 73.597 475.611 C 73.335 475, 71.938 470.675, 70.492 466 C 61.615 437.299, 58.573 428.087, 56.872 424.750 C 55.092 421.259, 54.650 421, 50.480 421 C 48.016 421, 46 421.388, 46 421.862 M 59.557 422.750 C 61.672 427.552, 70.983 456.636, 73.002 464.750 C 74.268 469.837, 75.607 474, 75.978 474 C 76.348 474, 77.708 472.875, 79 471.500 C 82.191 468.103, 84.195 468.342, 90.293 472.846 C 96.777 477.635, 101.292 480, 103.950 480 C 108.951 480, 105.291 467.560, 95.418 451 C 87.933 438.443, 84.912 434.445, 88.566 441.932 C 92.335 449.652, 97.701 463.836, 98.524 468.250 C 99.774 474.959, 97.378 472.304, 94.013 463.250 C 89.633 451.464, 81.862 435.444, 78.030 430.301 C 74.726 425.866, 65.958 421, 61.272 421 C 59.277 421, 58.938 421.346, 59.557 422.750 M 28.325 423.868 C 26.288 424.460, 26.674 425.275, 34.388 436.673 C 38.919 443.368, 43.454 450.680, 44.465 452.923 C 45.892 456.086, 46.854 457, 48.759 457 C 51.879 457, 51.802 456.798, 42.689 441.169 C 33.927 426.141, 31.318 422.999, 28.325 423.868 M 0.470 531.500 C 0.470 565.600, 0.596 579.695, 0.749 562.822 C 0.903 545.949, 0.903 518.049, 0.750 500.822 C 0.596 483.595, 0.470 497.400, 0.470 531.500 M 381.262 503.971 C 376.217 508.671, 372.501 515, 374.787 515 C 375.473 515, 382.059 506.890, 384.300 503.286 C 385.516 501.329, 383.644 501.751, 381.262 503.971 M 385.500 515 C 381.720 518.945, 384.335 518.915, 388.962 514.959 C 391.885 512.461, 392.109 512, 390.399 512 C 389.285 512, 387.081 513.350, 385.500 515 M 391.813 523.683 C 392.534 523.972, 393.397 523.936, 393.729 523.604 C 394.061 523.272, 393.471 523.036, 392.417 523.079 C 391.252 523.127, 391.015 523.364, 391.813 523.683 M 498.199 536.750 C 497.133 538.263, 495.285 541.430, 494.091 543.788 C 492.038 547.845, 491.739 548.042, 488.547 547.443 C 484.989 546.775, 481 547.574, 481 548.954 C 481 549.404, 483.025 550.077, 485.500 550.448 C 487.975 550.819, 490 551.274, 490 551.458 C 490 552.066, 477.026 584.308, 476.616 584.717 C 476.396 584.937, 474.538 584.416, 472.486 583.559 C 467.917 581.649, 468 581.649, 468 583.551 C 468 584.404, 469.575 585.760, 471.500 586.564 C 473.425 587.369, 475 588.462, 475 588.993 C 475 589.857, 473.230 594.966, 471.013 600.500 C 468.542 606.668, 467 611.854, 467 613.998 C 467 618.497, 469.565 614.108, 473.452 602.956 C 475.473 597.157, 477.473 591.852, 477.896 591.168 C 478.470 590.240, 482.197 591.339, 492.582 595.500 C 507.198 601.355, 516 605.157, 516 605.614 C 516 605.764, 514.650 609.916, 513 614.841 C 511.350 619.766, 510.002 624.404, 510.004 625.148 C 510.010 627.494, 513.843 620.324, 516.215 613.528 C 517.468 609.937, 518.884 607, 519.361 607 C 519.839 607, 522.430 608.198, 525.120 609.662 C 527.809 611.126, 530.305 612.028, 530.666 611.668 C 531.699 610.635, 528.341 607.484, 523.987 605.403 C 521.798 604.356, 520.172 603.050, 520.373 602.500 C 520.574 601.950, 522.898 595.117, 525.537 587.316 L 530.337 573.131 533.918 575.043 C 538.711 577.602, 541 579.482, 541 580.860 C 541 581.487, 541.675 582, 542.500 582 C 544.748 582, 544.307 578.632, 541.750 576.270 C 540.513 575.127, 537.756 573.473, 535.625 572.595 C 530.999 570.688, 531.024 570.190, 536.465 555.661 C 540.257 545.536, 540.585 544, 538.949 544 C 537.735 544, 536.341 547.134, 532.065 559.473 C 530.376 564.350, 528.879 568.454, 528.740 568.593 C 528.435 568.899, 507.129 556.303, 505 554.558 C 504.175 553.882, 501.925 552.733, 500 552.004 C 498.075 551.276, 496.114 550.343, 495.642 549.932 C 494.613 549.035, 500.835 537.001, 502.696 536.286 C 504.674 535.527, 504.255 534, 502.068 534 C 501.006 534, 499.264 535.237, 498.199 536.750 M 486.490 569.025 C 482.744 578.368, 479.911 586.244, 480.194 586.527 C 481.573 587.906, 516.592 601.778, 517.195 601.184 C 517.577 600.808, 520.108 594.123, 522.819 586.329 L 527.749 572.158 517.624 565.913 C 512.056 562.479, 504.305 557.951, 500.400 555.853 L 493.300 552.037 486.490 569.025 M 350.395 620.250 C 348.891 621.982, 344.726 627.827, 341.480 632.763 C 341.385 632.908, 339.677 632.345, 337.686 631.513 C 335.694 630.681, 333.375 630, 332.532 630 C 329.605 630, 331.025 631.709, 335.478 633.545 C 339.522 635.213, 339.812 635.550, 338.478 637.025 C 336.493 639.218, 336.617 640, 338.950 640 C 340.023 640, 341.305 639.278, 341.798 638.396 C 342.620 636.928, 342.970 636.933, 345.916 638.456 C 347.687 639.372, 350.117 639.979, 351.318 639.805 C 353.174 639.536, 352.865 639.125, 349.250 637.060 C 346.913 635.724, 345 634.263, 345 633.811 C 345 633.360, 347.025 630.094, 349.500 626.553 C 351.975 623.012, 354 619.639, 354 619.057 C 354 617.340, 352.487 617.841, 350.395 620.250 M 433.667 619.667 C 431.285 622.048, 434.585 622.781, 437.559 620.532 C 439.428 619.118, 439.404 619.062, 436.917 619.032 C 435.496 619.014, 434.033 619.300, 433.667 619.667 M 445.250 628.718 C 443.277 629.426, 443.794 631, 446 631 C 447.100 631, 448 630.577, 448 630.059 C 448 628.779, 446.763 628.176, 445.250 628.718 M 382.526 635.950 C 380.711 639.460, 380.652 640, 382.090 640 C 383.461 640, 386.922 635.919, 386.967 634.250 C 387.030 631.870, 384.045 633.013, 382.526 635.950" stroke="none" fill="black" fill-rule="evenodd"/>
</svg>